<svg xmlns="http://www.w3.org/2000/svg" xmlns:xlink="http://www.w3.org/1999/xlink" id="Layer_1" width="500" height="500" x="0" y="0" enable-background="new 0 0 5000 5000" version="1.1" viewBox="0 0 5000 5000" xml:space="preserve"><g><path fill="#D6314A" d="M426.926,2559.446c0,0,0.183-13.324,0.541-39.146c0.126-6.455,0.051-13.694,0.41-21.693 c0.313-7.995,0.656-16.76,1.028-26.29c0.445-9.521,0.61-19.8,1.363-30.794c0.702-11.007,1.455-22.741,2.263-35.214 c3.657-49.819,9.424-111.254,20.636-182.856c11.177-71.592,27.812-153.355,52.617-243.283c1.55-5.62,3.034-11.295,4.674-16.973 c1.686-5.67,3.387-11.36,5.095-17.104c3.451-11.459,6.944-23.065,10.47-34.828c7.694-23.331,15.114-47.381,23.964-71.587 c8.327-24.38,17.932-48.933,27.524-74.123c10.184-24.956,20.321-50.556,31.873-76.189 c44.972-102.998,102.205-210.762,173.548-319.305c71.326-108.505,157.086-217.66,258.695-322.081 c101.594-104.311,218.818-204.195,351.79-292.878c66.478-44.305,136.75-85.919,210.572-124.115 c73.78-38.26,151.404-72.451,231.982-102.789c80.575-30.422,164.492-56.07,250.916-76.909c21.552-5.482,43.419-9.935,65.301-14.727 c10.914-2.5,21.984-4.383,33.01-6.546c11.042-2.062,22.09-4.284,33.189-6.231c11.131-1.841,22.285-3.671,33.457-5.51l16.762-2.76 l16.87-2.349c11.254-1.555,22.514-3.126,33.814-4.699c11.297-1.452,22.664-2.619,34.024-3.943 c22.702-2.815,45.589-4.578,68.522-6.622c11.462-1.14,22.987-1.64,34.521-2.416c11.532-0.672,23.065-1.527,34.656-2.07 c11.609-0.429,23.23-0.863,34.881-1.288l17.476-0.636l17.406-0.202c11.601-0.142,23.222-0.267,34.872-0.407 c11.935-0.005,23.471,0.278,35.258,0.392c23.467,0.061,46.984,1.277,70.578,2.152c11.802,0.311,23.591,1.373,35.403,2.053 c11.809,0.821,23.661,1.352,35.481,2.446c23.65,2.208,47.414,3.964,71.104,6.965c11.858,1.411,23.76,2.641,35.623,4.213 c11.855,1.665,23.729,3.342,35.612,5.012c11.919,1.566,23.771,3.572,35.646,5.581c11.859,2.004,23.771,3.87,35.656,6.019 c23.677,4.688,47.543,8.806,71.186,14.276c47.512,9.945,94.717,22.371,141.864,35.674c23.479,7.02,47.085,13.844,70.409,21.707 c23.494,7.387,46.676,15.862,69.999,24.058c11.643,4.175,23.151,8.762,34.746,13.118l17.368,6.62 c5.787,2.24,11.505,4.674,17.254,7.004c11.496,4.714,22.994,9.434,34.51,14.151c11.4,5.013,22.802,10.011,34.227,15.018 c182.275,81.139,356.264,189.151,513.389,321.313c157.154,132.058,297.402,288.171,413.131,462.69 c115.821,174.417,207.012,367.224,268.078,570.069c61.233,202.797,92.139,415.459,91.952,628.031 c-0.239,212.571-31.583,425.104-93.201,627.647c-61.442,202.6-152.944,395.039-268.983,569.014 c-115.95,174.066-256.309,329.674-413.449,461.162c-157.119,131.609-330.971,239.05-512.979,319.623 c-11.408,4.971-22.802,9.947-34.182,14.901c-11.497,4.679-22.971,9.358-34.446,14.05c-5.743,2.319-11.448,4.73-17.224,6.97 l-17.348,6.558c-11.58,4.331-23.062,8.879-34.687,13.008c-23.285,8.145-46.423,16.534-69.871,23.843 c-23.285,7.807-46.836,14.577-70.263,21.536c-47.06,13.154-94.155,25.457-141.558,35.279c-23.596,5.406-47.394,9.462-71.011,14.09 c-11.854,2.107-23.739,3.952-35.572,5.934c-11.85,1.975-23.668,3.963-35.548,5.47c-11.846,1.653-23.688,3.294-35.521,4.942 c-11.841,1.54-23.697,2.743-35.521,4.124c-23.637,2.956-47.33,4.65-70.907,6.798c-11.786,1.065-23.597,1.564-35.386,2.377 c-11.789,0.646-23.524,1.689-35.3,1.976c-23.53,0.819-47.036,1.981-70.363,2c-11.707,0.073-23.292,0.331-35.038,0.319 c-11.656-0.154-23.297-0.319-34.912-0.486l-17.432-0.234l-17.385-0.67c-11.576-0.441-23.143-0.906-34.688-1.347 c-11.533-0.566-23.036-1.442-34.53-2.136c-11.486-0.803-22.964-1.318-34.381-2.475c-22.861-2.079-45.667-3.895-68.293-6.758 c-11.323-1.34-22.641-2.516-33.906-3.986c-11.243-1.593-22.468-3.167-33.68-4.754l-16.804-2.371l-16.704-2.789 c-11.116-1.855-22.23-3.711-33.313-5.551c-11.065-1.964-22.062-4.197-33.061-6.287c-10.994-2.165-22.008-4.067-32.881-6.582 c-21.788-4.811-43.568-9.295-65.018-14.805c-86.079-20.939-169.604-46.662-249.791-77.12 c-80.22-30.396-157.448-64.593-230.844-102.846c-73.443-38.179-143.331-79.765-209.422-124.016 c-132.224-88.562-248.677-188.224-349.573-292.244c-100.91-104.13-186.028-212.898-256.762-320.997 c-70.748-108.121-127.445-215.4-171.97-317.92c-11.429-25.527-21.455-51.003-31.538-75.826 c-9.478-25.067-18.977-49.501-27.21-73.773c-8.757-24.066-16.073-48.001-23.683-71.209c-3.491-11.7-6.924-23.241-10.334-34.65 c-1.689-5.705-3.37-11.386-5.034-17.004c-1.624-5.647-3.081-11.295-4.611-16.891c-24.484-89.455-40.85-170.75-51.81-241.919 c-10.988-71.208-16.598-132.268-20.134-181.787c-0.772-12.394-1.497-24.065-2.185-34.993c-0.716-10.939-0.865-21.152-1.283-30.613 c-0.349-9.467-0.678-18.185-0.976-26.128c-0.33-7.95-0.241-15.138-0.369-21.547c-0.299-25.664-0.453-38.906-0.453-38.906H426.926z M440.792,2559.446c0,0,0.181,13.242,0.539,38.906c0.137,6.409,0.057,13.591,0.418,21.547c0.301,7.943,0.648,16.661,1.022,26.122 c0.43,9.455,0.604,19.668,1.351,30.612c0.69,10.917,1.444,22.596,2.243,34.978c3.646,49.525,9.373,110.551,20.504,181.701 c11.105,71.128,27.629,152.365,52.293,241.712c1.527,5.591,3.005,11.238,4.625,16.868c1.681,5.63,3.379,11.283,5.077,16.981 c3.425,11.397,6.887,22.921,10.399,34.616c7.643,23.16,15.016,47.062,23.802,71.116c8.282,24.228,17.818,48.631,27.349,73.648 c10.129,24.789,20.2,50.234,31.662,75.692c44.701,102.35,101.563,209.417,172.456,317.269 c70.865,107.818,156.088,216.277,257.057,320.019c100.953,103.652,217.415,202.914,349.542,291.013 c66.054,44.044,135.871,85.396,209.227,123.327c73.308,38.024,150.436,71.971,230.504,102.131 c80.049,30.234,163.42,55.698,249.296,76.42c21.4,5.441,43.135,9.875,64.868,14.616c10.857,2.498,21.841,4.37,32.801,6.513 c10.974,2.039,21.941,4.268,32.978,6.197c11.068,1.814,22.137,3.643,33.233,5.47l16.667,2.743l16.758,2.332 c11.183,1.54,22.374,3.091,33.6,4.666c11.224,1.444,22.509,2.59,33.807,3.907c22.551,2.817,45.303,4.553,68.09,6.587 c11.395,1.139,22.85,1.631,34.299,2.398c11.459,0.676,22.932,1.523,34.423,2.057c11.504,0.43,23.036,0.848,34.585,1.276l17.32,0.63 l17.371,0.206c11.6,0.138,23.195,0.281,34.821,0.401c11.544,0.018,23.275-0.264,34.943-0.383 c23.375-0.063,46.699-1.272,70.126-2.142c11.705-0.299,23.437-1.37,35.172-2.034c11.737-0.824,23.507-1.34,35.256-2.43 c23.493-2.203,47.104-3.934,70.65-6.918c11.778-1.414,23.603-2.629,35.396-4.191c11.781-1.655,23.578-3.316,35.395-4.994 c11.823-1.559,23.6-3.528,35.402-5.527c11.796-1.998,23.633-3.854,35.426-5.984c23.523-4.668,47.246-8.752,70.73-14.188 c47.201-9.869,94.097-22.239,140.953-35.436c23.331-6.982,46.779-13.758,69.96-21.586c23.334-7.326,46.367-15.744,69.542-23.9 c11.563-4.135,22.994-8.695,34.518-13.019l17.271-6.587c5.744-2.227,11.418-4.65,17.137-6.958 c11.412-4.679,22.84-9.376,34.284-14.073c11.329-4.959,22.659-9.937,34.007-14.908c181.104-80.612,353.972-187.949,510.101-319.267 c156.158-131.214,295.505-286.34,410.496-459.741c115.083-173.299,205.677-364.875,266.351-566.403 c60.838-201.49,91.541-412.767,91.356-624.01c-0.249-211.235-31.385-422.398-92.596-623.633 c-61.054-201.294-151.964-392.491-267.261-565.353c-115.222-172.951-254.682-327.563-410.828-458.217 c-156.109-130.762-328.852-237.514-509.691-317.566c-11.326-4.954-22.643-9.88-33.953-14.808 c-11.427-4.662-22.828-9.32-34.229-13.963c-5.71-2.297-11.373-4.694-17.115-6.909l-17.234-6.53 c-11.502-4.299-22.91-8.824-34.457-12.934c-23.139-8.075-46.121-16.433-69.418-23.69c-23.14-7.749-46.536-14.46-69.807-21.38 c-46.765-13.079-93.561-25.298-140.64-35.048c-23.438-5.368-47.099-9.402-70.566-13.998c-11.774-2.105-23.569-3.936-35.334-5.904 c-11.769-1.955-23.513-3.928-35.319-5.446c-11.77-1.629-23.543-3.268-35.289-4.899c-11.763-1.533-23.557-2.718-35.307-4.09 c-23.479-2.943-47.02-4.631-70.448-6.762c-11.71-1.068-23.455-1.555-35.153-2.361c-11.709-0.634-23.382-1.67-35.08-1.956 c-23.365-0.807-46.66-1.98-69.921-1.98c-11.569-0.096-23.346-0.355-34.702-0.326c-11.638,0.158-23.257,0.326-34.875,0.482 l-17.391,0.226l-17.219,0.671c-11.492,0.447-22.952,0.894-34.396,1.348c-11.452,0.557-22.888,1.424-34.308,2.125 c-11.406,0.78-22.82,1.293-34.161,2.453c-22.711,2.076-45.378,3.855-67.849,6.692c-11.257,1.34-22.497,2.52-33.697,3.982 c-11.174,1.579-22.329,3.146-33.456,4.721l-16.699,2.354l-16.595,2.766c-11.045,1.852-22.088,3.683-33.104,5.522 c-10.994,1.948-21.916,4.174-32.85,6.241c-10.915,2.162-21.864,4.039-32.662,6.536c-21.647,4.792-43.291,9.24-64.6,14.716 c-85.515,20.812-168.504,46.353-248.184,76.624c-79.685,30.199-156.426,64.175-229.35,102.188 c-72.958,37.935-142.4,79.253-208.068,123.213c-131.362,87.992-247.09,187.033-347.336,290.386 c-100.269,103.456-184.834,211.542-255.117,318.935c-70.301,107.431-126.638,214.033-170.862,315.896 c-11.363,25.338-21.314,50.671-31.337,75.331c-9.419,24.884-18.86,49.167-27.039,73.275c-8.699,23.926-15.966,47.705-23.52,70.757 c-3.47,11.615-6.893,23.099-10.272,34.421c-1.681,5.68-3.35,11.305-5.006,16.898c-1.6,5.625-3.055,11.226-4.57,16.785 c-24.336,88.865-40.588,169.645-51.481,240.351c-10.913,70.743-16.48,131.417-20.006,180.624 c-0.772,12.321-1.491,23.913-2.173,34.777c-0.696,10.868-0.851,21.014-1.275,30.427c-0.34,9.393-0.667,18.054-0.95,25.941 c-0.347,7.9-0.246,15.054-0.384,21.423c-0.296,25.501-0.447,38.665-0.447,38.665H440.792z"/><path fill="#CCECFC" d="M4011.427,1434.261c0,210.654,170.762,381.418,381.426,381.418c210.647,0,381.418-170.765,381.418-381.418 c0-210.653-170.771-381.441-381.418-381.441C4182.188,1052.82,4011.427,1223.608,4011.427,1434.261z"/><path fill="#CCECFC" d="M3049.328,445.136c0,231.8,187.918,419.721,419.723,419.721c231.806,0,419.719-187.92,419.719-419.721 c0-231.802-187.913-419.721-419.719-419.721C3237.246,25.415,3049.328,213.333,3049.328,445.136z"/><path fill="#CCECFC" d="M1268.41,517.665c0,240.056,194.59,434.655,434.636,434.655c240.049,0,434.657-194.6,434.657-434.655 c0-240.048-194.608-434.645-434.657-434.645C1463,83.021,1268.41,277.617,1268.41,517.665z"/><path fill="#CCECFC" d="M1015.677,1529.148c0,217.293-176.137,393.429-393.424,393.429c-217.297,0-393.434-176.136-393.434-393.429 c0-217.291,176.137-393.435,393.434-393.435C839.54,1135.714,1015.677,1311.858,1015.677,1529.148z"/><path fill="#069BA6" d="M4280.519,2757.604c0,162.203,131.487,293.705,293.705,293.705c162.212,0,293.707-131.502,293.707-293.705 c0-162.212-131.495-293.706-293.707-293.706C4412.006,2463.898,4280.519,2595.392,4280.519,2757.604z"/><path fill="#CCECFC" d="M1689.538,4641.309c0,186.816,151.431,338.275,338.27,338.275c186.815,0,338.262-151.459,338.262-338.275 c0-186.822-151.446-338.266-338.262-338.266C1840.969,4303.043,1689.538,4454.486,1689.538,4641.309z"/><path fill="#CCECFC" d="M4057.617,3912.367c0,210.653,170.761,381.414,381.425,381.414c210.648,0,381.419-170.761,381.419-381.414 c0-210.658-170.771-381.442-381.419-381.442C4228.378,3530.925,4057.617,3701.709,4057.617,3912.367z"/><path fill="#069BA6" d="M372.39,4191.771c137.316,186.752,400.035,226.827,586.786,89.508 c186.753-137.319,226.822-400.04,89.505-586.787c-137.32-186.752-400.032-226.826-586.784-89.508 C275.145,3742.305,235.07,4005.024,372.39,4191.771z"/><path fill="#CCECFC" d="M128.387,2788.467c0,210.653,170.761,381.421,381.425,381.421c210.648,0,381.417-170.768,381.417-381.421 c0-210.652-170.77-381.438-381.417-381.438C299.148,2407.028,128.387,2577.814,128.387,2788.467z"/><g><g><g><g><polygon fill="#FFF" points="2062.095 4774.445 1995.056 4774.445 1995.056 4707.363 1927.977 4707.363 1927.959 4707.363 1927.959 4623.551 1995.024 4623.551 1995.024 4556.516 2062.086 4556.516 2062.086 4623.551 2129.147 4623.551 2129.147 4707.363 2062.095 4707.363"/></g></g></g><g><polygon fill="none" points="1995.024 4556.516 2062.086 4556.516 2062.086 4623.551 2129.147 4623.551 2129.147 4707.363 2062.095 4707.363 2062.095 4774.445 1995.056 4774.445 1995.056 4707.363 1927.977 4707.363 1927.959 4707.363 1927.959 4623.551 1995.024 4623.551"/></g><g><polygon fill="none" points="1995.024 4556.516 2062.086 4556.516 2062.086 4623.551 2129.147 4623.551 2129.147 4707.363 2062.095 4707.363 2062.095 4774.445 1995.056 4774.445 1995.056 4707.363 1927.977 4707.363 1927.959 4707.363 1927.959 4623.551 1995.024 4623.551"/><path fill="#DB4744" d="M1777.81,4547.691v231.199c0,34.425,28.133,62.583,62.561,62.583h376.391 c34.5,0,62.627-28.158,62.627-62.583v-231.199c0-34.426-28.127-58.24-62.627-58.24h-70.813v-0.141h-33.559v0.141h-167.638h-33.53 h-70.851C1805.943,4489.451,1777.81,4513.266,1777.81,4547.691z M1927.959,4623.551h67.065v-67.035h67.062v67.035h67.062v83.813 h-67.053v67.082h-67.039v-67.082h-67.079h-0.018V4623.551z"/><path fill="#DB4744" d="M2112.39,4465.1c0-15.37-13.707-29.078-29.061-29.078H1973.79c-15.298,0-29.038,13.708-29.038,29.078 v24.352h-33.53V4465.1c0-34.471,28.144-62.604,62.568-62.604h109.539c34.394,0,62.62,28.133,62.62,62.604v24.211h-33.559V4465.1z"/></g></g><g><path fill="#FFF" d="M1560.963,393.673l-19.676,150.244l-101.95,30.403c0,0-5.371,73.333-21.464,82.275 c-16.101,8.944-48.291-1.787-48.291-1.787v-71.544l69.755-66.177l30.409-112.68L1560.963,393.673z"/><rect width="219.112" height="182.896" x="1689.403" y="386.474" fill="#FFF"/><g><g><g><g><g><g><path fill="#DB4744" d="M1441.94,685.545c0,38.702,31.375,70.069,70.063,70.069c38.701,0,70.065-31.367,70.065-70.069 c0-38.694-31.365-70.067-70.065-70.067C1473.315,615.478,1441.94,646.851,1441.94,685.545z M1526.142,700.928 c-3.726,3.425-8.687,5.528-14.141,5.528c-5.458,0-10.413-2.103-14.135-5.528c-4.162-3.82-6.784-9.296-6.784-15.388 c0-1.298,0.141-2.563,0.366-3.795c1.787-9.732,10.298-17.126,20.553-17.126c10.249,0,18.771,7.394,20.559,17.126 c0.22,1.231,0.354,2.497,0.354,3.795C1532.913,691.632,1530.297,697.107,1526.142,700.928z"/></g></g><path fill="#DB4744" d="M1868.461,685.545c0,38.702,31.377,70.069,70.068,70.069c38.691,0,70.063-31.367,70.063-70.069 c0-38.694-31.372-70.067-70.063-70.067C1899.838,615.478,1868.461,646.851,1868.461,685.545z M1917.61,685.54 c0-1.298,0.137-2.563,0.36-3.795c1.788-9.732,10.298-17.126,20.55-17.126c10.254,0,18.771,7.394,20.558,17.126 c0.224,1.231,0.36,2.497,0.36,3.795c0,6.092-2.619,11.567-6.774,15.388c-3.723,3.425-8.687,5.528-14.144,5.528 c-5.453,0-10.409-2.103-14.129-5.528C1920.233,697.107,1917.61,691.632,1917.61,685.54z"/><g><g><g><path fill="#DB4744" d="M1656.582,367.266v228.811h260.031V367.266H1656.582z M1717.862,458.076h50.67v-50.675h50.671 v50.675h50.672v50.67h-50.672v50.671h-50.671v-50.671h-50.67V458.076z"/></g></g></g></g></g><g><path fill="#3C454F" d="M1352.207,638.119c0,11.146,0.294,22.59,0.294,33.742c26.699,0,53.392,0,80.104-0.295 c8.796-38.727,46.354-69.831,86.838-63.965c35.611,1.999,60.693,31.644,71.535,63.166v2.855h270.098 c4.35-28.377,23.952-51.792,50.148-61.595c8.546-3.193,17.786-4.953,27.429-4.953c34.868,0,64.476,22.861,74.673,54.38 c1.271,3.931,2.259,7.991,2.9,12.168h14.333v-12.168V514.373V341.071h-330.144c0-0.316,0-0.689,0-1.093h-77.448 c0,0.4,0.003,0.777,0.003,1.093h-31.993v18.014c-41.054-0.29-82.127-0.573-123.466,0.011 c3.231,40.488-16.142,77.16-25.521,115.598c-5.876,14.672-4.991,35.799-22.3,42.538c-17.316,8.508-34.919,16.434-52.222,24.35 c-1.186,31.989-0.301,63.672-0.589,95.654C1361.888,637.529,1357.194,637.815,1352.207,638.119z M1691.381,483.407 c0-56.597,45.889-102.486,102.486-102.486c56.601,0,102.492,45.889,102.492,102.486c0,56.604-45.891,102.486-102.492,102.486 C1737.27,585.894,1691.381,540.011,1691.381,483.407z M1448.148,511.366c8.213-31.098,18.193-61.61,26.403-92.415 c20.831-0.886,41.961-0.586,62.79-0.586c1.18,31.095,0.587,62.2,0.294,93.294 C1507.71,511.659,1478.083,511.955,1448.148,511.366z M1370.565,607.381c18.128-0.315,36.257-0.315,54.379,0 c0.314,10.938,0.314,21.563,0,32.509c-18.122,0.308-36.564,0.308-54.696-0.317 C1369.941,628.943,1369.941,618.319,1370.565,607.381z"/><path fill="#DB4744" d="M1622.931,298.295c0-21.407,17.36-38.764,38.763-38.764c21.414,0,38.772,17.357,38.772,38.764 c0,7.215-0.043,33.367-0.049,41.683h-77.448C1622.931,331.528,1622.931,305.516,1622.931,298.295z"/></g></g><path fill="#3C454F" d="M1616.963,338.369c0,3.887,3.149,7.038,7.034,7.038h77.852c3.886,0,7.036-3.151,7.036-7.038l0,0 c0-3.887-3.15-7.039-7.036-7.039h-77.852C1620.112,331.33,1616.963,334.481,1616.963,338.369L1616.963,338.369z"/></g></g><g><path fill="#DB4744" d="M3172.839,405.021c0,12.635,1.526,24.893,4.319,36.663c0.105,0.407,0.211,0.807,0.297,1.222 c0.158,0.69,0.354,1.396,0.51,2.098c5.311,21.71,14.816,42.745,26.9,62.704c15.753,26.012,35.897,50.19,56.877,71.651h162.715 c5.229,0,9.914,3.218,11.807,8.085l26.389,68.781l93.326-231.462c1.881-4.63,6.292-7.722,11.298-7.904 c4.42-0.308,9.601,2.599,11.794,7.092l42.903,88.254h80.748c0.668,0,1.31,0.081,1.94,0.194 c6.645-10.538,12.576-21.387,17.587-32.49c5.14-11.389,9.307-23.044,12.209-34.904c0.157-0.701,0.352-1.408,0.51-2.098 c0.088-0.415,0.192-0.815,0.298-1.222c2.791-11.771,4.318-24.028,4.318-36.663c0-0.694-0.016-1.387-0.024-2.08 c-0.827-63.58-39.403-118.04-94.354-142.005c-2.202-0.771-4.412-1.486-6.64-2.128c-17.628-6.926-36.74-10.805-56.743-10.903 c-49.582,0.195-93.758,23.409-122.42,59.484c-2,1.492-3.019,2.361-3.019,2.361c-0.063-0.053-0.121-0.084-0.172-0.129 c-0.007-0.007-0.018-0.016-0.024-0.02c-28.707-37.489-73.925-61.706-124.83-61.706c-0.252,0-0.502,0.009-0.755,0.009 c-0.208,0-0.414-0.009-0.623-0.009c-22.315,0-43.535,4.661-62.759,13.041c-27.883,9.798-53.497,30.313-74.118,65.664 c-3.81,6.69-7.128,13.555-9.868,20.314c-7.563,18.75-10.712,37.51-10.371,56.027 C3172.856,403.634,3172.839,404.327,3172.839,405.021z M3693.308,404.865c-0.341-0.726-0.55-1.492-0.589-2.288 c-2.652-55.557-51.081-103.983-106.641-106.602c-4.442-0.254-8.129-5.655-8.218-12.083c-0.089-6.423,4.337-11.443,9.885-11.14 c66.835,3.233,124.938,61.344,128.187,128.195c0.071,1.396-0.194,2.72-0.739,3.919c-1.598,3.547-5.595,5.993-10.41,5.939 C3699.509,410.725,3694.896,408.239,3693.308,404.865z"/><path fill="#DB4744" d="M3450.613,695.256c1.861,4.857,6.502,8.064,11.682,8.106c0.042,0,0.077,0,0.117,0 c5.15,0,9.779-3.122,11.723-7.936l94.686-234.83l33.908,69.764c2.109,4.343,6.531,7.09,11.369,7.09h73.08 c-54.371,71.234-134.184,123.943-151.392,136.001c-16.689,11.699-37.892,25.041-54.245,35.064 c-15.744,10.197-25.132,15.361-25.132,15.361s-0.079-0.045-0.197-0.118c-0.12,0.072-0.197,0.118-0.197,0.118 s-9.386-5.165-25.132-15.361c-16.355-10.023-37.554-23.365-54.246-35.064c-11.178-7.829-48.76-32.813-88.632-68.874l127.79,0.019 L3450.613,695.256z"/></g><g><polygon fill="#FFF" points="875.595 4005.803 565.852 3827.499 540.204 3842.162 517.401 3890.432 532.069 3916.079 832.433 4083.766"/><g><g><rect width="46.933" height="10.498" x="726.995" y="3991.43" fill="#3C454F" transform="matrix(-0.4974 0.8675 -0.8675 -0.4974 4590.9199 5333.6611)"/><polygon fill="#3C454F" points="790.921 4046.915 814.26 4006.211 805.156 4000.982 781.814 4041.697"/><polygon fill="#3C454F" points="767.13 4033.283 784.409 4003.141 775.302 3997.924 758.022 4028.061"/><polygon fill="#3C454F" points="814.707 4060.557 831.983 4030.42 822.876 4025.202 805.6 4055.34"/><g><path fill="#DB4744" d="M540.818,3863.496c0,0,13.136-30.562,37.534-16.569l176.746,101.322l-33.714,58.804l-180.702-103.592 C540.683,3903.461,523.396,3893.535,540.818,3863.496z"/></g></g></g><g><path fill="none" d="M577.045,3840.043l290.302,166.437l-5.081,8.872l-0.184,0.309l-29.902,52.16l-0.177,0.314l-5.109,8.912 L534.613,3909.47c0,0-17.778-16.376,0.931-48.999C535.543,3860.471,551.983,3825.672,577.045,3840.043z"/><path fill="#3C454F" d="M514.048,3873.65c0.041-0.114,0.078-0.235,0.115-0.355c0.003,0.006,0.006,0.006,0.011,0.006 C514.128,3873.422,514.088,3873.536,514.048,3873.65z"/><path fill="#3C454F" d="M533.463,3838.942c2.91-3.184,5.367-5.36,6.828-6.563c-2.451,2.164-4.659,4.496-6.595,6.775 C533.618,3839.08,533.542,3839.017,533.463,3838.942z"/></g><g><polygon fill="none" points="491.949 3844.888 492.178 3844.475 492.184 3844.486"/><polygon fill="none" points="497.745 3834.773 497.978 3834.366 497.745 3834.773"/><path fill="#00A4A1" d="M497.745,3834.773l0.233-0.407c2.457-4.284,9.919-4.628,16.666-0.756l10.921,6.254 c1.559-2.245,4.591-2.989,7.009-1.604c0.338,0.194,0.618,0.435,0.89,0.682c-6.148,6.747-14.295,18.041-19.301,34.353 c-0.467-0.108-0.93-0.275-1.375-0.521c-2.414-1.391-3.31-4.375-2.153-6.855l-10.917-6.26 c-6.752-3.871-10.229-10.486-7.769-14.771l0.235-0.401l-0.006-0.012L497.745,3834.773L497.745,3834.773z"/><polygon fill="#FFF" points="364.119 3758.163 497.745 3834.773 492.178 3844.475 374.967 3777.281"/></g><g><path fill="none" d="M577.045,3840.043l290.302,166.437l-5.081,8.872l-0.184,0.309l-29.902,52.16l-0.177,0.314l-5.109,8.912 L534.613,3909.47c0,0-17.778-16.376,0.931-48.999C535.543,3860.471,551.983,3825.672,577.045,3840.043z"/><path fill="#3C454F" d="M525.105,3916.313L525.105,3916.313l295.221,169.256l-5.899,10.298l18.37,10.526l4.969-8.671 l9.823-17.131l35.292-61.987l0.373-0.218l12.617-22.004l-18.376-10.527l-5.773,10.074l-295.218-169.256 c-14.347-8.224-26.978-2.457-36.211,5.705c-2.451,2.164-4.659,4.496-6.595,6.775c-0.078-0.074-0.154-0.138-0.233-0.212 c-6.148,6.747-14.295,18.041-19.301,34.353c0.003,0.006,0.006,0.006,0.011,0.006c-0.045,0.121-0.085,0.235-0.126,0.35 C509.455,3887.109,507.219,3906.057,525.105,3916.313z M535.543,3860.471c0,0,16.439-34.799,41.502-20.428l290.302,166.437 l-5.081,8.872l-0.184,0.309l-29.902,52.16l-0.177,0.314l-5.109,8.912L534.613,3909.47 C534.613,3909.47,516.834,3893.094,535.543,3860.471z"/></g><g><polygon fill="#525F6C" points="847.588 4080.592 882.879 4018.604 883.252 4018.387 880.708 4022.825 1007.854 4095.712 974.732 4153.484"/><polygon fill="#3C454F" points="1007.854 4095.712 1027.324 4061.76 1051.185 4075.443 979.274 4200.861 955.412 4187.184 974.732 4153.484"/></g></g><g><rect width="180.046" height="55.879" x="551.19" y="1313.233" fill="#2F363B"/><path fill="#434B54" d="M452.018,1472.319c0-72.159,50.879-130.673,113.645-130.673h151.101 c62.771,0,113.645,58.514,113.645,130.673v292.802c0,4.022-0.224,7.966-0.561,11.881c0.072,0.658,0.177,1.313,0.177,1.996 c0,2.258-0.412,4.386-1.139,6.331c-0.064,0.476-0.101,0.973-0.164,1.455h-0.518c-2.391,4.902-6.887,8.25-12.128,8.25H466.351 c-5.227,0-9.725-3.348-12.114-8.25h-0.529c-0.072-0.491-0.101-0.99-0.175-1.482c-0.712-1.93-1.119-4.068-1.119-6.304 c0-0.668,0.106-1.306,0.183-1.958c-0.355-3.924-0.579-7.885-0.579-11.919V1472.319z"/><path fill="#E9F6F5" d="M481.087,1615.984c0,41.099,28.97,74.412,64.719,74.412h190.811c35.758,0,64.722-33.313,64.722-74.412 v-50.424c0-41.085-28.963-74.406-64.722-74.406H545.806c-35.75,0-64.719,33.321-64.719,74.406V1615.984z"/><rect width="227.83" height="30.095" x="527.303" y="1523.058" fill="#FDC76C"/><rect width="227.83" height="30.094" x="527.303" y="1578.174" fill="#FDC76C"/><rect width="178.439" height="30.094" x="551.995" y="1633.292" fill="#FDC76C"/><g><rect width="9.018" height="74.191" x="595.614" y="1239.052" fill="#F39226"/><rect width="9.021" height="74.191" x="616.245" y="1239.052" fill="#F39226"/><rect width="9.024" height="74.191" x="740.07" y="1239.052" fill="#F39226"/><rect width="9.02" height="74.191" x="719.433" y="1239.052" fill="#F39226"/><rect width="9.021" height="74.191" x="636.886" y="1239.052" fill="#F39226"/><rect width="9.023" height="74.191" x="657.516" y="1239.052" fill="#F39226"/><rect width="9.018" height="74.191" x="574.976" y="1239.052" fill="#F39226"/><rect width="9.018" height="74.191" x="698.796" y="1239.052" fill="#F39226"/><rect width="9.027" height="74.191" x="554.331" y="1239.052" fill="#F39226"/><rect width="9.021" height="74.191" x="533.701" y="1239.052" fill="#F39226"/><rect width="9.021" height="74.191" x="678.157" y="1239.052" fill="#F39226"/><rect width="7.938" height="74.191" x="514.157" y="1239.052" fill="#F39226"/><rect width="7.568" height="74.191" x="760.704" y="1239.052" fill="#F39226"/><line x1="760.704" x2="749.094" y1="1239.052" y2="1239.052" fill="#C93392"/><rect width="11.61" height="74.191" x="749.094" y="1239.052" fill="#E1AF65"/><line x1="740.07" x2="728.452" y1="1239.052" y2="1239.052" fill="#C93392"/><rect width="11.618" height="74.191" x="728.452" y="1239.052" fill="#E1AF65"/><line x1="719.433" x2="707.813" y1="1239.052" y2="1239.052" fill="#C93392"/><rect width="11.619" height="74.191" x="707.813" y="1239.052" fill="#E1AF65"/><line x1="698.796" x2="687.178" y1="1239.052" y2="1239.052" fill="#C93392"/><rect width="11.618" height="74.191" x="687.178" y="1239.052" fill="#E1AF65"/><line x1="678.157" x2="666.539" y1="1239.052" y2="1239.052" fill="#C93392"/><rect width="11.618" height="74.191" x="666.539" y="1239.052" fill="#E1AF65"/><line x1="657.516" x2="645.907" y1="1239.052" y2="1239.052" fill="#C93392"/><rect width="11.609" height="74.191" x="645.907" y="1239.052" fill="#E1AF65"/><line x1="636.886" x2="625.266" y1="1239.052" y2="1239.052" fill="#C93392"/><rect width="11.62" height="74.191" x="625.266" y="1239.052" fill="#E1AF65"/><line x1="616.245" x2="604.632" y1="1239.052" y2="1239.052" fill="#C93392"/><rect width="11.613" height="74.191" x="604.632" y="1239.052" fill="#E1AF65"/><line x1="595.614" x2="583.994" y1="1239.052" y2="1239.052" fill="#C93392"/><rect width="11.621" height="74.191" x="583.994" y="1239.052" fill="#E1AF65"/><line x1="574.976" x2="563.358" y1="1239.052" y2="1239.052" fill="#C93392"/><rect width="11.618" height="74.191" x="563.358" y="1239.052" fill="#E1AF65"/><line x1="554.331" x2="542.722" y1="1239.052" y2="1239.052" fill="#C93392"/><rect width="11.609" height="74.191" x="542.722" y="1239.052" fill="#E1AF65"/><line x1="533.701" x2="522.095" y1="1239.052" y2="1239.052" fill="#C93392"/><rect width="11.606" height="74.191" x="522.095" y="1239.052" fill="#E1AF65"/></g></g><g><g><path fill="#FFF" d="M526.216,1699.006c20.999,13.984,27.901,41.186,17.047,63.223l-81.958-54.579 C477.458,1689.142,505.214,1685.026,526.216,1699.006z"/><path fill="#FFF" d="M471.15,1781.697c-20.996-13.985-27.901-41.182-17.047-63.226l81.956,54.579 C519.908,1791.56,492.153,1795.68,471.15,1781.697z"/></g></g><g><g><path fill="#E9E6E3" d="M4410.069,2832.305c0.628-78.008,55.567-128.941,128.878-145.023v-123.006h-10.714 c-8.699,0-15.767-7.063-15.767-15.762c0-8.724,7.067-15.762,15.767-15.762h45.996v299.553H4410.069z"/><path fill="#FFF9F6" d="M4574.229,2532.752h46.015c8.694,0,15.759,7.038,15.759,15.762c0,8.699-7.064,15.762-15.759,15.762 h-10.739v123.006c73.33,16.082,128.25,67.016,128.878,145.023h-164.153V2532.752z"/><path fill="#E05B5A" d="M4738.383,2832.305c0,0.457,0.105,0.875,0.105,1.322c0,90.723-71.94,148.832-162.669,148.832 c-0.523,0-1.068-0.063-1.59-0.063v-150.092H4738.383z"/><path fill="#DB4744" d="M4409.961,2833.627c0-0.447,0.108-0.865,0.108-1.322h164.16v150.092 C4484.233,2981.727,4409.961,2923.799,4409.961,2833.627z"/></g></g><g><g><path fill="#3C454F" d="M565.376,2648.284h-52.949c-4.393,0-7.95-3.54-7.95-7.943c0-4.382,3.557-7.928,7.95-7.928h52.949 c4.385,0,7.956,3.546,7.956,7.928C573.332,2644.744,569.761,2648.284,565.376,2648.284z"/><path fill="#3C454F" d="M565.376,2600.648h-52.949c-4.393,0-7.95-3.562-7.95-7.955c0-4.387,3.557-7.932,7.95-7.932h52.949 c4.385,0,7.956,3.545,7.956,7.932C573.332,2597.087,569.761,2600.648,565.376,2600.648z"/></g><g><path fill="#DB4744" d="M455.33,2663.152c-26.182,0-59.63,6.678-73.66,9.76v118.729c0,0,29.085,58.705,126.93,58.705 c97.854,0,110.806-63.053,110.806-63.053v-114.444c-16.581-3.385-58.903-10.155-88.9,1.587 C530.506,2674.436,489.34,2663.152,455.33,2663.152z M504.478,2783.335c0-4.398,3.557-7.943,7.95-7.943h52.949 c4.385,0,7.956,3.545,7.956,7.943c0,4.388-3.571,7.944-7.956,7.944h-52.949C508.034,2791.279,504.478,2787.723,504.478,2783.335z M504.478,2739.642c0-4.382,3.557-7.927,7.95-7.927h52.949c4.385,0,7.956,3.545,7.956,7.927c0,4.398-3.571,7.955-7.956,7.955 h-52.949C508.034,2747.597,504.478,2744.04,504.478,2739.642z M504.478,2695.965c0-4.41,3.557-7.961,7.95-7.961h52.949 c4.385,0,7.956,3.551,7.956,7.961c0,4.369-3.571,7.938-7.956,7.938h-52.949C508.034,2703.902,504.478,2700.334,504.478,2695.965z"/><path fill="#3C454F" d="M360.979,2506.932v6.33v90.051v60.006v119.982c0,49.542,40.521,90.081,90.08,90.081h15.908 c0.315,8.677,10.601,15.904,24.616,18.413v3.705v47.566h-0.476c-8.27,0-15.035,6.759-15.035,14.994v52.084 c0,8.254,6.765,15.006,15.035,15.006h0.476v94.846h21.205v-94.846h0.492c8.228,0,15.018-6.752,15.018-15.006v-52.084 c0-8.235-6.79-14.994-15.018-14.994h-0.492V2895.5v-3.705c14.044-2.515,24.305-9.736,24.617-18.413h15.945 c49.556,0,90.069-40.539,90.069-90.081v-119.982v-60.006v-90.051v-6.33c0-11.698-9.474-21.176-21.169-21.176H382.146 C370.454,2485.756,360.979,2495.234,360.979,2506.932z M381.67,2542.361h90.084H529.3h90.106v90.087v4.81v27.801v7.79v114.444 c0,0-12.952,63.053-110.806,63.053c-97.845,0-126.93-58.705-126.93-58.705v-118.729v-7.854v-11.855v-20.755V2542.361z"/></g></g><g><polygon fill="#F7F8F9" points="4408.299 1263.532 4534.995 1607.799 4501.792 1669.835 4436.259 1652.361 4303.447 1299.356"/><g><polygon fill="#404E51" points="4311.72 1299.227 4440.476 1644.69 4488.102 1664.005 4503.973 1658.091 4527.337 1612.317 4398.589 1266.851 4415.928 1259.361 4546.63 1610.054 4513.75 1674.45 4538.185 1740.017 4527.305 1744.072 4526.736 1744.282 4515.855 1748.338 4491.42 1682.771 4424.41 1655.604 4293.709 1304.911"/><g><polygon fill="#DB4744" points="4456.453 1440.625 4517.645 1604.816 4498.552 1646.918 4484.893 1652.006 4442.9 1632.676 4381.708 1468.483"/></g><g><path fill="#DB4744" d="M4289.284,1269.912l-22.704-60.927c-11.018-29.563,4.018-62.471,33.587-73.488l42.658,114.461 L4289.284,1269.912z"/><path fill="#C54140" d="M4300.167,1135.497c29.567-11.021,62.475,4.016,73.493,33.581l22.706,60.928l-53.541,19.953 L4300.167,1135.497z"/><path fill="#30393A" d="M4396.366,1230.005l19.066-7.107c10.655-3.971,22.847,2.35,27.233,14.119 c4.391,11.771-0.695,24.529-11.35,28.501l-72.608,27.06l-5.834-15.659l-10.049-26.961L4396.366,1230.005z"/><path fill="#404E51" d="M4270.217,1277.019l19.067-7.106l53.541-19.954l10.049,26.961l5.834,15.659l-72.606,27.058 c-10.652,3.972-22.845-2.345-27.234-14.118C4254.482,1293.748,4259.565,1280.987,4270.217,1277.019z"/></g></g></g><g><g><path fill="#DB4744" d="M4546.909,3724.144c0.811,0.733,1.603,1.518,2.401,2.285l52.71-40.734 c0,0-13.122-127.571-152.081-133.219c-138.945,7.521-152.349,133.002-152.349,133.002l53.963,41.667 c2.039-2.165,3.267-3.271,3.267-3.271l-0.03,0.155c24.723-25.423,61.288-41.873,109.361-34.983c0,0,45.549,1.317,82.471,34.828 l0,0C4546.622,3723.873,4546.737,3723.982,4546.909,3724.144z M4497.265,3636.359h-33.048v33.076h-28.782v-33.076h-33.087 v-28.774h33.087v-33.041h28.782v33.041h33.048V3636.359z"/><g><g><path fill="#30393A" d="M4452.705,4066.17l3.132,6.151l0.037,0.081l3.097-6.232l43.25-84.92l1.342-2.434l1.328-2.807 l-0.771-3.287l-4.12-17.521c5.669-2.669,11.092-5.767,16.208-9.29c16.306,25.67,69.771,23.248,69.771,23.248 c-15.343-30.338-1.707-33.579,4.06-112.017l0,0c1.735-10.423,2.064-21.248,0.746-32.262 c-5.698-41.552-22.198-69.284-41.474-87.841c-0.799-0.773-1.591-1.558-2.401-2.291c-0.172-0.16-0.287-0.275-0.287-0.275v0.006 c-36.922-33.512-82.471-34.827-82.471-34.827c-48.073-6.892-84.639,9.559-109.361,34.976l0.03-0.154 c0,0-1.228,1.111-3.267,3.271c-10.89,11.552-45.004,53.339-40.148,119.397c5.761,78.438,19.397,81.679,4.056,112.017 c0,0,49.928,2.257,67.996-20.762c4.687,1.386,8.7,2.107,11.585,2.469c4.409,2.525,9,4.771,13.749,6.707l-3.247,13.803 l-0.274,1.162l3.849,8.053L4452.705,4066.17z M4498.925,3950.254c-0.511,0.178-1.471,0.71-1.471,0.71 c-13.954,6.467-29.444,10.189-45.819,10.189c-31.368,0-59.607-13.345-79.571-34.571 c-18.327-27.072-19.813-64.037-16.758-83.877c75.503-28.625,108.846-81.644,108.846-81.644 c29.841,81.644,99.957,66.403,79.087,135.349c-5.113,19.182-13.805,31.76-22.472,40.029 C4514.109,3941.886,4506.747,3946.474,4498.925,3950.254z M4455.837,4060.019l-44.742-87.846l0.083-0.345l2.878-12.25 c11.77,4.146,24.404,6.432,37.579,6.432c15.278,0,29.847-3.041,43.17-8.517l4.183,17.801L4455.837,4060.019z"/><path fill="#404E51" d="M4487.91,3848.982c0-5.396,4.375-9.771,9.773-9.771s9.774,4.376,9.774,9.771 c0,5.4-4.376,9.777-9.774,9.777S4487.91,3854.383,4487.91,3848.982z"/><path fill="#404E51" d="M4408.249,3857.579c-5.071,0-9.184-4.112-9.184-9.187c0-5.069,4.112-9.182,9.184-9.182 c5.069,0,9.179,4.112,9.179,9.182C4417.428,3853.467,4413.318,3857.579,4408.249,3857.579z"/><path fill="#30393A" d="M4508.254,3975.861c46.29,11.586,85.533,36.563,111.036,69.514 c19.938,25.755,31.498,56.361,31.498,89.186h-123.774h-62.885v-66.271h51.797L4508.254,3975.861z"/></g></g></g><g><path fill="#30393A" d="M4188.021,4083.531l7.738-3.519c20.094-9.129,40.181-4.271,53.487,1.421l4.198,1.792l2.665,1.135 l0.484-10.08l1.912-39.731c0.9-18.739-13.607-34.719-32.349-35.623c-11.926-0.573-23.067,4.988-29.79,14.879 c-3.514,5.166-5.531,11.209-5.83,17.469L4188.021,4083.531z M4199.172,4067.637l1.725-35.865 c0.214-4.353,1.613-8.551,4.05-12.137c4.677-6.873,12.426-10.744,20.711-10.343c13.021,0.624,23.11,11.735,22.486,24.754 l-1.696,35.212C4234.417,4065.196,4217.176,4062.047,4199.172,4067.637z"/><path fill="#E32228" d="M4263.807,4079.916c0.198,0.104,0.417,0.212,0.608,0.304l0.492,0.257l-1.363,0.189L4263.807,4079.916z"/></g><g><path fill="#30393A" d="M4262.142,4085.5c0.195,0.104,0.418,0.207,0.605,0.305l0.495,0.257l7.058-0.968 c21.868-2.996,39.718,7.411,50.842,16.678l5.734,4.771l16.567-47.038c6.229-17.697-3.101-37.16-20.792-43.396 c-4.906-1.73-10.001-2.297-14.96-1.764c-6.423,0.686-12.61,3.229-17.848,7.484c-4.845,3.941-8.508,9.152-10.587,15.064 l-1.273,3.613l-11.891,33.774l-3.148,8.945L4262.142,4085.5z M4277.115,4074.206l11.925-33.86 c1.453-4.113,3.996-7.732,7.354-10.47c6.452-5.247,14.981-6.741,22.807-3.981c12.3,4.33,18.783,17.859,14.456,30.155 l-11.712,33.253C4311.581,4081.967,4295.965,4074.017,4277.115,4074.206z"/><path fill="#DB4744" d="M4186.732,4132.945c-0.86,17.916,13.013,33.195,30.929,34.061c8.031,0.385,15.679-2.142,21.751-6.969 c1.343-1.071,2.61-2.252,3.788-3.541c0.495-0.537,0.974-1.094,1.435-1.672c0.523-0.658,1.034-1.335,1.519-2.045 c2.586-3.803,4.316-8.115,5.108-12.634c0.232-1.347,0.394-2.692,0.457-4.066l0.819-16.931l0.802-16.558l0.67-13.889l0.119-2.44 l-0.387-0.2l-1.366,0.184l0.265-0.745c-0.933-0.471-1.992-0.979-3.147-1.5c-9.067-4.106-24.573-9.119-41.303-5.723 c0.297,0.498-5.704,1.514-5.704,1.514c-4.271,1.361-8.572,3.275-12.831,6.007l-0.674,0.425L4186.732,4132.945z M4195.859,4088.863l15.426-4.641c-7.354,4.318-8.378,9.433-8.378,9.433c-15.492,47.681,0.958,63.546,0.958,63.546 C4180.806,4143.484,4195.859,4088.863,4195.859,4088.863z"/><path fill="#DB4744" d="M4250.734,4158.479c0.681-0.631,3.806-4.17,4.004-4.434c0.314-0.412,0.619-0.83,0.914-1.266 c0.317-0.464,0.622-0.938,0.912-1.42c2.087-3.442,3.515-7.252,4.208-11.214c0.234-1.341,0.385-2.698,0.449-4.066l0.817-16.931 l1.47-30.446c10.378-3.659,22.33-1.341,22.33-1.341v0.018c18.065,2.68,31.729,13.785,37.883,19.725l0.713,0.688l-11.396,32.354 l-5.178,14.69c-1.987,5.658-5.489,10.641-10.118,14.41c-8.872,7.222-20.6,9.261-31.372,5.469 c-7.705-2.715-13.723-8.069-17.46-14.678C4249.535,4159.538,4250.146,4159.022,4250.734,4158.479z"/></g><path fill="#30393A" d="M4334.749,4106.605c0.528-1.122,1.016-2.269,1.501-3.414c0.029-0.051,0.051-0.103,0.076-0.154 c0.412-0.721,0.774-1.448,1.107-2.188c0.05-0.092,0.085-0.195,0.136-0.287l0.473,0.396l16.565-47.039 c6.231-17.698-3.098-37.16-20.789-43.396c-4.908-1.73-10.005-2.297-14.962-1.765c23.835-16.919,52.519-29.307,84.103-35.532 l-7.888,95.063h52.906v66.271h-123.774l8.834-25.074C4333.672,4108.564,4334.273,4107.613,4334.749,4106.605z"/></g><g><g><path fill="#069BA6" d="M3240.162,4604.623c0,190.229,154.232,344.462,344.461,344.462c190.277,0,344.51-154.232,344.51-344.462 c0-190.274-154.232-344.484-344.51-344.484C3394.395,4260.139,3240.162,4414.349,3240.162,4604.623z"/></g></g><g><g><g><g><path fill="#FFF" d="M3683.184,4440.197c0-47.006-38.216-85.27-85.175-85.27c-46.98,0-85.171,38.264-85.171,85.27 c0,46.953,38.19,85.177,85.171,85.177C3644.968,4525.374,3683.184,4487.167,3683.184,4440.197z"/></g><g><path fill="#FFF" d="M3729.404,4534.842c52.891,20.287,52.442,57.41,52.629,59.238l0.26,131.713 c0.009,0.366,0.104,12.221-7.086,19.592c-3.919,4.021-9.499,6.072-16.594,6.072l-5.01-0.029L3729.404,4534.842z M3419.896,4800.74v-195.464c6.762-80.173,98.383-79.919,102.377-79.902h142.513l-43.833,164.767h-25.094 c-19.977,0-36.248,16.254-36.248,36.234c0,19.996,16.271,36.268,36.248,36.268h24.486h77.216l0.034,61.357l-209.115,0.148 l0.084-200.184l-13.328,17.211v153.448l-0.059,5.824c0,15.538-12.404,27.933-27.649,27.933 c-15.212,0-27.614-12.395-27.614-27.641H3419.896z M3606.918,4751.004l-11.059-0.029c-13.543,0-24.574-11.014-24.574-24.6 c0-13.533,11.023-24.563,24.574-24.563h20.898C3611.593,4714.83,3604.004,4737.401,3606.918,4751.004z"/></g></g></g><path fill="#DB4744" d="M3741.925,4750.98l-21.786-216.139c-8.141-2.807-11.978-6.891-43.348-9.176 c0,0-61.78,218.843-57.917,224.766c0.192,0.264,0.364,0.543,1.464,0.543h121.587V4750.98z"/></g></g><g><g><g><path fill="#52A5D1" d="M2371.665,3183.693l0.059-16.877c0.994-18.024,2.01-37.389,3.004-57.778l-158.845,304.811 c-20.71,39.737-58.721,67.589-102.856,75.367l-385.986,7.319l-84.192,15.154l-131.447,34.985 c222.159,226.498,516.019,382.401,844.84,430.985l3.19-382.89L2371.665,3183.693z"/><path fill="#52A5D1" d="M4067.377,2502.499c0-823.613-667.672-1491.283-1491.282-1491.283 c-823.614,0-1491.284,667.67-1491.284,1491.283c0,186.287,34.161,364.592,96.554,529.003 c-4.234-75.551,51.07-142.27,127.231-151.158c8.816-1.031,17.529-1.197,26.088-0.652c39.442,2.525,75.271,21.174,100.077,50.034 c11.499,45.017,24.943,89.25,40.259,132.605l28.195,241.495l73.917-13.019l415.852-73.275l214.959-412.486 c-3.162-13.03-4.879-26.621-4.879-40.624c0-94.76,76.817-171.569,171.576-171.569c0.93,0,1.847,0.058,2.77,0.069 c-0.017-0.287-0.035-0.579-0.06-0.865h144.516V2592c41.231-2.039,80.178-12.747,115.051-30.327 c0.213,0.298,0.447,0.584,0.666,0.894l-16.96,10.017l-68.706,281.787l94.273,23.563l-62.841,117.828l263.654,521.529 l48.997,72.021l62.223,123.623l0.257-6.526l27.383-78.185l319.737-632.463l-62.842-117.828l94.273-23.563l-68.705-281.787 l-16.96-10.017c0.212-0.31,0.44-0.596,0.671-0.894c34.867,17.58,73.809,28.288,115.045,30.327v0.057h163.23 c0,0,84.016-1.443,110.379,25.068l-108.352,401.793l-0.234-0.144c0,0.326,0,0.659,0,0.979l-0.126,0.481l0.132,0.35 c0.441,135.692,3.94,287.394,13.019,444.781l-3.276-14.461l2.801,185.535C3864.574,3362.921,4067.377,2956.4,4067.377,2502.499z"/><path fill="#F9F9FA" d="M3545.13,3465.366c-9.078-157.388-12.577-309.089-13.019-444.781l-0.132-0.35l0.126-0.481 c0-0.32,0-0.653,0-0.979l0.234,0.144l108.352-401.793c-26.363-26.512-110.379-25.068-110.379-25.068h-163.23V2592 c-41.236-2.039-80.178-12.747-115.045-30.327c-0.23,0.298-0.459,0.584-0.671,0.894l16.96,10.017l68.705,281.787l-94.273,23.563 l62.842,117.828l-319.737,632.463l-27.383,78.185l-0.257,6.526l18.748,37.248l-24.52,195.684 c221.659-57.637,423.26-164.985,592.203-309.427l-2.801-185.535L3545.13,3465.366z"/><path fill="#F9F9FA" d="M1182.095,3040.286l52.399,448.798c4.607,39.427,25.261,75.211,57.102,98.923 c25.066,18.666,61.36-11.833,92.172-11.833c8.331,0,16.704-0.721,25.023-2.188l102.609-27.312 c-142.97-145.761-256.251-320.743-330.036-515.173C1181.527,3034.419,1181.751,3037.346,1182.095,3040.286z"/><path fill="#F9F9FA" d="M2949.035,3946.77l9.188-233.834L2896,3589.313l-48.997-72.021l-263.654-521.529l62.841-117.828 l-94.273-23.563l68.706-281.787l16.96-10.017c-0.219-0.31-0.453-0.596-0.666-0.894c-34.873,17.58-73.819,28.288-115.051,30.327 v0.057h-144.516c0.025,0.286,0.043,0.578,0.06,0.865c-0.923-0.012-1.84-0.069-2.77-0.069 c-94.759,0-171.576,76.81-171.576,171.569c0,14.003,1.717,27.594,4.879,40.624l-214.959,412.486l-415.852,73.275l-73.917,13.019 l-28.195-241.495c-15.316-43.355-28.761-87.589-40.259-132.605c-24.806-28.86-60.634-47.509-100.077-50.034 c-8.559-0.545-17.271-0.379-26.088,0.652c-76.161,8.889-131.465,75.607-127.231,151.158 c73.784,194.43,187.066,369.412,330.036,515.173l131.447-34.985l84.192-15.154l385.986-7.319 c44.135-7.778,82.146-35.63,102.856-75.367l158.845-304.811c-0.994,20.39-2.01,39.754-3.004,57.778l-0.059,16.877 l-12.234,411.077l-3.19,382.89c71.751,10.605,145.156,16.123,219.854,16.123 C2704.872,3993.783,2829.837,3977.459,2949.035,3946.77z"/><path fill="#F9F9FA" d="M2952.451,3945.867l24.52-195.684l-18.748-37.248l-9.188,233.834 C2950.176,3946.475,2951.31,3946.162,2952.451,3945.867z"/></g><path fill="none" d="M2941.264,3773.127v-0.006c-0.046,0-0.086,0-0.126,0C2941.178,3773.121,2941.218,3773.121,2941.264,3773.127z"/></g><g><path fill="#010101" d="M3300.439,2576.853c-67.034-92.144-181.993-138.867-341.679-138.867 c-180.905,0-308.316,48.096-378.711,142.948c-0.035,0.052-0.075,0.109-0.115,0.166c13.723-3.785,40.991-12.663,74.462-30.549 c68.603-53.458,170.578-80.5,304.364-80.5c116.66,0,207.136,25.979,270.018,77.353c22.188,11.057,55.177,24.553,73.315,31.789 C3301.544,2578.414,3301,2577.623,3300.439,2576.853z"/><g><g><path fill="none" d="M1577.132,3290.808c-39.866-72.835-74.104-149.181-102.112-228.477l28.195,241.495L1577.132,3290.808z"/><path fill="#F26428" d="M2941.138,3773.121c0.04,0,0.08,0,0.126,0.006v-0.006 C2941.218,3773.121,2941.178,3773.121,2941.138,3773.121z"/><path fill="#F9F9FA" d="M1468.539,3006.845c-3.46-29.628-15.699-56.083-33.779-77.119 c11.499,45.017,24.943,89.25,40.259,132.605L1468.539,3006.845z"/></g><path fill="none" d="M2941.138,3773.121c0.04,0,0.08,0,0.126,0.006v-0.006 C2941.218,3773.121,2941.178,3773.121,2941.138,3773.121z"/><polygon fill="#E6E6E5" points="2958.479 3706.409 2958.479 3702.371 2945.358 3702.371 2945.358 3708.368 2952.1 3724.629"/><g><path fill="#E6E6E5" d="M2952.1,3724.629l-6.741-16.261v9.908c0.849,0,1.69,0.017,2.537,0.017c3.534,0,7.057-0.045,10.584-0.068 v-11.815L2952.1,3724.629z"/></g></g><g><path fill="none" d="M3532.105,3019.754l0.234-0.836l-0.234-0.144C3532.105,3019.101,3532.105,3019.434,3532.105,3019.754z"/><path fill="none" d="M2941.264,3773.127v-0.006c-0.046,0-0.086,0-0.126,0C2941.178,3773.121,2941.218,3773.121,2941.264,3773.127 z"/><path fill="#0B4969" d="M3532.111,3020.585c-0.006-0.275-0.006-0.556-0.006-0.831l-0.126,0.481L3532.111,3020.585z"/><path fill="#4CC4D1" d="M2941.264,3773.127v-0.006c-0.046,0-0.086,0-0.126,0 C2941.178,3773.121,2941.218,3773.121,2941.264,3773.127z"/></g><g><path fill="#D7AF95" d="M3128.762,2396.352l0.148,0.117v-57.909h-353.906v83.667h-1.186 c-14.874,32.998-35.809,62.658-61.323,87.657C2988.771,2536.34,3128.762,2396.352,3128.762,2396.352z"/><path fill="#F3C8A6" d="M3128.91,2450.417v-53.949l-0.148-0.117c0,0-139.99,139.988-416.267,113.532 c-21.18,20.758-45.516,38.308-72.269,51.789c34.611,49.369,80.865,89.954,134.777,117.771v77.824h0.445v5.298h336.382v-5.298 h17.079v-85.274c48.43-27.636,90.051-65.819,121.78-111.41C3200.227,2536.34,3157.918,2497.917,3128.91,2450.417z"/></g><path fill="#D1D4DC" d="M3195.05,2620.745c-66.393,61.913-155.36,99.896-253.312,99.896c-89.908,0-172.146-32.05-236.414-85.177 l246.627,1089.443L3195.05,2620.745z"/><polygon fill="#435C7A" points="3015.158 3545.939 3070.857 3409.616 3004.598 2790.092 2952.248 2774.822 2952.248 2774.158 2951.108 2774.49 2949.975 2774.158 2949.975 2774.822 2897.621 2790.092 2826.797 3450.659 2911.08 3610.436 2951.395 3723.305 2964.586 3699.846 2997.564 3606.77"/><polygon fill="#435C7A" points="3031.223 2688.356 2949.293 2677.125 2867.341 2688.356 2851.412 2733.878 2890.107 2795.326 2949.293 2797.611 3008.475 2795.326 3047.156 2733.878"/><polygon fill="#BECAC6" points="2682.781 2535.854 2945.56 2677.125 2759.076 2863.62 2620.622 2572.583"/><polygon fill="#BECAC6" points="3208.967 2535.854 2946.184 2677.125 3132.666 2863.62 3267.725 2575.572"/><g><path fill="#F3C8A6" d="M3402.209,1779.56c0-318.926-191.754-419.347-440.991-419.347c-3.069,0-6.116,0.032-9.17,0.087v1094.313 C3200.771,2453.604,3402.209,2098.051,3402.209,1779.56z"/><path fill="#E3B99A" d="M2940.68,1360.577c-240.167,7.822-440.899,108.855-440.899,418.983 c0,314.54,196.518,667.717,440.899,674.737c3.471,0.106,6.885,0.345,10.31,0.345c0.354,0,0.704-0.029,1.059-0.029V1360.3 C2948.256,1360.364,2944.471,1360.452,2940.68,1360.577z"/></g><g><g><g><g><path fill="#3C2618" d="M3432.243,1739.23c-10.785-142.629-68.929-245.797-68.929-245.797 c38.895-173.55-123.328-221.884-294.376-226.064c-158.127-3.818-323.763,30.046-345.161,37.847 c-23.178,8.444-55.795,11.376-81.614,12.257c-23.712,0.781-41.799-0.109-41.799-0.109c0.968,3.916,4.777,13.051,8.511,21.441 c3.866,8.905,7.658,16.972,7.658,16.972c-4.542,0.472-12.818-1.8-22.767-5.47c-34.622-12.686-90.566-43.057-90.566-43.057 c-6.046,46.56,5.091,88.064,17.737,117.904c12.646,29.845,26.793,48.039,26.793,48.039 c-10.152,2.037-38.472-10.109-38.472-10.109c8.128,38.449,16.235,56.681,16.235,56.681 c-60.891,44.428-74.998,172.708-76.114,273.059l104.358,121.857l36.088-87.471c0.772,0.111,1.501,0.129,2.284,0.234 c25.476-92.083,46.696-230.795,46.696-230.795c272.273,174.8,522.801,35.136,566.088,8.313 c8.214-9.006,12.561-14.412,12.561-14.412c15.436,174.916,133.711,293.223,133.711,293.223 c-9.873-74.283,75.338-132.533,81.689-136.752c0.258-0.171,0.596-0.405,0.596-0.405 C3433.113,1744.073,3432.673,1741.737,3432.243,1739.23z"/><path fill="#F3C8A6" d="M3343.107,1853.957c-17.027,65.077-4.925,124.68,26.977,133.073 c31.981,8.451,71.661-37.49,88.745-102.587c17.039-65.049,4.914-124.654-26.993-133.075 C3399.9,1742.952,3360.193,1788.866,3343.107,1853.957z"/><path fill="#E3B99A" d="M2546.854,1855.667c17.702,63.593,8.391,121.741-20.608,129.804 c-29.003,8.093-66.826-36.921-84.485-100.541c-17.643-63.632-8.395-121.747,20.591-129.84 C2491.396,1747.041,2529.265,1792.033,2546.854,1855.667z"/></g></g></g></g><path fill="none" d="M2944.471,3710.098l41.392-81.873c-30.733-32.365-95.572,34.433-95.572,34.433v16.043l35.224-6.094 L2944.471,3710.098z"/><polygon fill="#E6E6E5" points="2951.951 3724.908 2705.324 2635.465 2682.781 2535.854 2637.582 2562.566 2620.622 2572.583 2551.916 2854.37 2646.189 2877.934 2583.349 2995.762"/><polygon fill="#E6E6E5" points="3344.608 2854.37 3275.902 2572.583 3275.152 2572.137 3212.128 2538.408 3195.05 2620.745 2951.951 3724.908 3313.193 2995.762 3250.342 2877.934"/><polygon fill="#1D626D" points="2391.076 3391.719 1255.175 3621.049 964.688 2182.254 2100.595 1952.921"/><rect width="1036.847" height="1313.324" x="1159.459" y="2130.314" fill="#FFF" transform="matrix(0.9802 -0.1979 0.1979 0.9802 -518.3657 387.1804)"/><g><rect width="77.262" height="77.236" x="1199.561" y="2553.417" fill="#2D4A55" transform="matrix(0.9802 -0.1979 0.1979 0.9802 -488.381 296.2322)"/><rect width="641.506" height="77.239" x="1345.293" y="2467.031" fill="#2D4A55" transform="matrix(0.9802 -0.1979 0.1979 0.9802 -462.9143 379.2634)"/></g><g><polygon fill="#2D4A55" points="1312.723 2766.088 1237.008 2781.387 1221.724 2705.67 1297.436 2690.378"/><rect width="560.636" height="77.242" x="1375.138" y="2618.876" fill="#2D4A55" transform="matrix(0.9802 -0.1979 0.1979 0.9802 -493.1792 380.1758)"/></g><g><polygon fill="#2D4A55" points="1341.784 2909.926 1266.056 2925.219 1250.769 2849.508 1326.502 2834.215"/><polygon fill="#2D4A55" points="1914.664 2794.273 1417.366 2894.673 1402.076 2818.958 1899.379 2718.563"/></g><g><polygon fill="#2D4A55" points="1370.826 3053.774 1295.091 3069.066 1279.805 2993.356 1355.541 2978.059"/><rect width="657.938" height="77.236" x="1432.253" y="2896.944" fill="#2D4A55" transform="matrix(0.9802 -0.1979 0.1979 0.9802 -546.0879 406.5803)"/></g><g><polygon fill="#2D4A55" points="1399.865 3197.623 1324.137 3212.904 1308.847 3137.199 1384.584 3121.907"/><rect width="657.937" height="77.236" x="1461.295" y="3040.787" fill="#2D4A55" transform="matrix(0.9802 -0.1979 0.1979 0.9802 -573.98 415.1733)"/></g><g><path fill="#E3B99A" d="M1004.65,2850.705c2.811,0,5.661-0.201,8.529-0.613l165.732-23.671 c32.689-4.668,55.405-34.954,50.734-67.646c-4.669-32.682-34.899-55.385-67.644-50.729l-165.733,23.672 c-32.686,4.668-55.403,34.953-50.731,67.646C949.796,2829.182,975.375,2850.705,1004.65,2850.705z"/></g><g><path fill="#E3B99A" d="M996.152,2980.361l162.353-20.287c32.766-4.105,56.008-33.98,51.913-66.746 c-4.097-32.766-33.965-55.968-66.741-51.913l-162.355,20.297c-32.765,4.091-56.008,33.971-51.915,66.735 c3.784,30.253,29.539,52.389,59.254,52.389C991.133,2980.836,993.634,2980.676,996.152,2980.361z"/></g><g><path fill="#E3B99A" d="M1193.146,3078.225c32.455-6.088,53.833-37.33,47.746-69.782c-6.087-32.462-37.325-53.832-69.782-47.749 l-162.353,30.435c-32.452,6.083-53.831,37.325-47.746,69.782c5.389,28.734,30.487,48.786,58.694,48.786 c3.656,0,7.366-0.338,11.087-1.042L1193.146,3078.225z"/></g><g><path fill="#E3B99A" d="M1271.404,3125.619c-4.86-29.176-32.412-48.9-61.619-44.021l-145.404,24.232 c-29.168,4.863-48.877,32.451-44.014,61.627c4.366,26.191,27.053,44.754,52.755,44.754c2.919,0,5.886-0.24,8.868-0.75 l145.399-24.227C1256.561,3182.377,1276.269,3154.788,1271.404,3125.619z"/></g><path fill="#F9F9FA" d="M3714.161,2699.296c40.63,86.048,15.619,183.161-55.853,216.918 c-71.489,33.759-162.372-8.63-203.008-94.679c-40.63-86.043-15.63-183.167,55.854-216.919 C3582.633,2570.859,3673.521,2613.248,3714.161,2699.296z"/><path fill="#343337" d="M2944.786,3457.183c0,10.984-8.9,19.885-19.886,19.885c-10.979,0-19.879-8.9-19.879-19.885 c0-10.979,8.9-19.886,19.879-19.886C2935.886,3437.297,2944.786,3446.203,2944.786,3457.183z"/><path fill="#343337" d="M3005.302,3463.156c0,10.979-8.896,19.885-19.88,19.885c-10.979,0-19.88-8.905-19.88-19.885 c0-10.985,8.9-19.891,19.88-19.891C2996.406,3443.266,3005.302,3452.171,3005.302,3463.156z"/><g><path fill="#E6E6E5" d="M3537.214,3489.622c-85.515-59.64-261.392-89.667-420.516-98.155l-77.462,158.086l503.431,23.706 L3537.214,3489.622z"/></g><g><path fill="#010101" d="M2519.74,2789.062c1.177,60.601,14.307,104.621,14.865,106.472l30.696-9.278 c-0.499-1.649-48.585-166.403,40.641-286.404c13.667-18.378,29.84-34.804,48.454-49.3 c-33.471,17.886-60.739,26.764-74.462,30.549C2538.99,2636.358,2518.177,2708.266,2519.74,2789.062z"/><polygon fill="#010101" points="3308.233 2994.175 3323.485 2999.101 3308.233 2994.164"/></g><path fill="#010101" d="M3302.094,2579.192c-18.139-7.236-51.128-20.732-73.315-31.789c17.319,14.149,32.561,30.215,45.664,48.21 c57.704,79.244,63.997,182.777,59.112,255.676c-5.379,80.212-25.092,142.147-25.321,142.875l15.252,4.937l15.252,4.932 c0.854-2.641,21.015-65.71,26.747-149.748C3373.079,2743.087,3351.149,2648.059,3302.094,2579.192z"/><g><path fill="#E6E6E5" d="M3424.053,2999.021c0,53.952-43.734,97.692-97.686,97.692c-53.952,0-97.687-43.74-97.687-97.692 c0-53.946,43.734-97.686,97.687-97.686C3380.318,2901.335,3424.053,2945.074,3424.053,2999.021z"/><path fill="#010101" d="M3326.367,3103.724c-57.732,0-104.703-46.965-104.703-104.703c0-57.731,46.971-104.702,104.703-104.702 c57.73,0,104.707,46.971,104.707,104.702C3431.074,3056.759,3384.098,3103.724,3326.367,3103.724z M3326.367,2908.345 c-50,0-90.676,40.683-90.676,90.676c0,50.001,40.676,90.676,90.676,90.676c49.999,0,90.676-40.675,90.676-90.676 C3417.043,2949.027,3376.366,2908.345,3326.367,2908.345z"/></g><path fill="#B4B4B4" d="M3397.002,2999.021c0,39.01-31.626,70.636-70.635,70.636c-39.016,0-70.637-31.626-70.637-70.636 c0-39.009,31.621-70.636,70.637-70.636C3365.376,2928.385,3397.002,2960.012,3397.002,2999.021z"/><g><path fill="#B4B4B4" d="M2555.686,3527.158c-77.876-4.139-87.119-54.169-87.475-56.287l-52.308-312.842l23.757-3.975 l52.309,312.842c0.235,1.179,7.313,33.145,64.989,36.196L2555.686,3527.158z"/><path fill="#B4B4B4" d="M2736.034,3481.787c72.291-29.244,64.761-79.559,64.404-81.684l-52.303-312.847l-23.762,3.975 l52.308,312.847c0.154,1.186,3.871,33.717-49.679,55.372L2736.034,3481.787z"/><path fill="#292728" d="M2576.104,3488.769c22.875,4.548,39.037,20.229,36.1,35.035c-2.944,14.799-23.878,23.12-46.752,18.567 c-22.871-4.542-39.038-20.229-36.106-35.028C2532.292,3492.543,2553.229,3484.221,2576.104,3488.769z"/><path fill="#292728" d="M2704.076,3467.371c-20.154,11.741-30.338,31.833-22.737,44.875c7.6,13.034,30.097,14.094,50.251,2.354 c20.143-11.741,30.333-31.834,22.738-44.875S2724.225,3455.631,2704.076,3467.371z"/><path fill="#292728" d="M2409.35,3166.729c-0.464-2.772-11.247-68.653-2.499-138.957 c12.243-98.373,56.916-156.765,129.186-168.843c171.344-28.654,217.741,236.695,219.631,248.001l-35.636,5.974 c-0.4-2.411-42.177-241.061-178.035-218.34c-55.67,9.308-89.075,55.63-99.288,137.658c-8.104,65.143,2.172,127.927,2.275,128.551 L2409.35,3166.729z"/></g><path fill="#DB4744" d="M1545.468,2232.749c-62.304,11.677-103.342,71.651-91.666,133.953 c11.678,62.302,71.652,103.342,133.954,91.666c62.303-11.68,103.344-71.654,91.663-133.957 C1667.745,2262.108,1607.771,2221.067,1545.468,2232.749z M1645.785,2354.207l-52.231,9.791l9.789,52.207l-45.435,8.516 l-9.787-52.208l-52.174,9.78l-8.516-45.425l52.178-9.78l-9.781-52.169l45.434-8.516l9.778,52.17l52.231-9.791L1645.785,2354.207z"/><g><g><path fill="#305056" d="M1733.587,1987.587l-207.045,48.303l-209.592,35.816c0,0,23.895,66.313,2.534,136.687l224.261-45.28 l16.254-3.276l227.914-46.016C1740.896,2057.253,1733.587,1987.587,1733.587,1987.587z"/><path fill="#2D4A55" d="M1790.321,2108.661c2.708,13.438-5.962,26.523-19.395,29.235l-430.583,86.927 c-13.43,2.715-26.542-5.976-29.257-19.405l0,0c-2.713-13.434,6.003-26.526,19.437-29.242l430.579-86.933 C1774.536,2086.537,1787.608,2095.234,1790.321,2108.661L1790.321,2108.661z"/><path fill="#2D4A55" d="M1741.921,1988.295c2.45,12.13-5.398,23.946-17.529,26.392l-388.96,78.534 c-12.127,2.444-23.965-5.401-26.416-17.524l0,0c-2.453-12.153,5.417-23.971,17.548-26.419l388.953-78.533 C1727.654,1968.301,1739.464,1976.143,1741.921,1988.295L1741.921,1988.295z"/></g><g><path fill="#2D4A55" d="M1642.862,1975.3c-13.963-69.152-81.355-113.904-150.501-99.94 c-69.15,13.958-113.893,81.352-99.936,150.501l7.452,36.913l250.438-50.56L1642.862,1975.3z M1519.295,2008.641 c-26.87,5.421-53.045-11.966-58.466-38.802c-5.426-26.864,11.963-53.05,38.825-58.47c26.841-5.421,53.024,11.965,58.448,38.831 C1563.522,1977.035,1546.137,2003.221,1519.295,2008.641z"/></g></g><path fill="#E3B99A" d="M2741.35,3169.072c0,0,17.853,20.04,66.695,33.361l-14.8,267.934c0,0-44.393-8.666-87.319,10.578 L2741.35,3169.072z"/><g><g><g><g><path fill="#FFF" d="M2906.459,3165.819l-103.574-5.035c-14.336-0.692-26.523,10.36-27.223,24.697l-6.615,136.146 l-6.614,136.14c-0.706,14.33,10.36,26.523,24.696,27.217l103.573,5.04c14.324,0.697,26.518-10.367,27.211-24.703 l6.615-136.134l6.615-136.15C2931.842,3178.699,2920.783,3166.519,2906.459,3165.819z"/><g><g><g><path fill="#E3B99A" d="M2399.792,3434.914c1.074-22.097,19.445-39.015,41.209-39.433c-0.03-0.241-0.11-0.413-0.153-0.572 l-39.019-1.896c-23.047-1.118-40.994-20.859-39.871-43.952c1.115-22.99,20.899-40.991,43.941-39.869l-41.906-2.039 c-23.042-1.116-40.993-20.848-39.874-43.929c1.114-22.99,20.906-40.99,43.947-39.874l-167.624-8.145 c-23.027-1.116-40.988-20.848-39.867-43.935c1.12-23.001,20.912-40.984,43.941-39.862l26.766,1.301l224.666,10.922 l30.284,1.472c5.112,0.246,9.876-4.204,11.586-9.055c1.725-4.828,0.12-10.809-4.014-13.884 c-38.714-32.801-78.539-32.778-76.379-77.217c0.501-10.32,6.407-19.628,15.544-24.438 c9.155-4.719,20.151-4.352,28.902,1.077l276.197,145.022c6.454,4.004,10.229,11.237,9.856,18.85 c-1.781,36.666-8.07,165.973-11.896,244.793c-1.69,34.709-31.157,61.488-65.905,59.8 c-112.279-5.458-230.474-11.203-230.474-11.203C2416.616,3477.738,2398.671,3457.995,2399.792,3434.914z"/></g></g></g></g></g></g></g><path fill="#F9F9FA" d="M3795.141,3557.005c-2.531,0-5.052-0.057-7.588-0.161l-976.289-40.681l15.131-363.253l742.131,58.493 l-159.719-378.288l311.977-118.865l235.858,577.56c29.714,57.55,26.569,126.575-8.276,181.175 C3914.9,3525.452,3857.025,3557,3795.141,3557.005z"/></g></g></svg>