<svg xmlns="http://www.w3.org/2000/svg" xmlns:xlink="http://www.w3.org/1999/xlink" id="Layer_1" x="0" y="0" version="1.1" viewBox="0 0 100 100" xml:space="preserve" style="enable-background:new 0 0 100 100"><style type="text/css">.st0{fill:#3baa57}.st1{fill:#fff}</style><circle cx="50" cy="50" r="50" class="st0"/><path d="M37.1,14.4c0.7,0.1,1.4,0.2,2,0.4c1,0.3,1.9,0.7,2.8,1.2L43,37c-1.9,1.3-4.1,2.1-6.5,2.3	c1.3,5.6,3.8,10.7,7.4,15.1c3.5,4.3,8,7.9,13.2,10.4c0.6-2.3,1.9-4.3,3.6-5.8L81,64.4c0.3,0.9,0.5,1.9,0.5,3c0,0.7,0,1.4,0,2.1	c-0.7,6.9-6.9,11.8-13.8,11.1c-27.4-2.9-47.3-27.6-44.4-55C24.1,18.6,30.2,13.7,37.1,14.4z" class="st1"/></svg>